<svg id="dassword-logo" xmlns="http://www.w3.org/2000/svg" viewBox="0 0 748.59 79.17"><defs><style>.cls-1{fill:#eee;stroke:#eee;}.cls-2{fill:none;stroke-width:4px;}.cls-2,.cls-3,.cls-4{stroke:#4ecca3;}.cls-2,.cls-4{stroke-miterlimit:10;}.cls-3,.cls-4{fill:#4ecca3;}.cls-4{stroke-width:1.5px;}</style></defs><title>logo-rounded</title><path class="cls-1" d="M176.64,49.08a35.33,35.33,0,0,0-15.58-20.51,44.12,44.12,0,0,0-24.25-6.9c-6.49-.13-19.32-.14-19.32-.14l.11,5s10.76.06,16.21,0c6.93,0,13.65,1,19.86,3.95a30,30,0,0,1,15.12,14.1A32.85,32.85,0,0,1,171.39,67a28.71,28.71,0,0,1-8,15c-6.81,6.84-15.36,10.1-25.19,10.42L90.43,92.3v5.19c.5.08,13.75,0,14.25,0h29.55a58.52,58.52,0,0,0,16.86-2.38A39.49,39.49,0,0,0,169,83.92a34.46,34.46,0,0,0,8.4-17.37A38.94,38.94,0,0,0,176.64,49.08Z" transform="translate(-14.1 -19.74)"/><rect class="cls-2" x="2" y="2.37" width="76" height="74" rx="3.65"/><path class="cls-1" d="M51.14,65.33,39,77.66l-3.08-3.09L47.93,62.38H29.7V56.75H47.93l-3-3.21c-1.07-1.16-2.15-2.23-3.22-3.22s-2-1.87-3-3-2-2-2.88-2.94L39,41.21,51.1,53.27V35.18h5.76V53.27L69.19,41.21l3,3.08L59.86,56.75H78.49v5.63H59.85L72.18,74.71l-2.81,3L56.9,65.38V83.87H51.14Z" transform="translate(-14.1 -19.74)"/><path class="cls-3" d="M179.64,97.82l35.42-77h5.61L256.1,97.71h-5.94L218,27.2h-.45l-32,70.62Z" transform="translate(-14.1 -19.74)"/><path class="cls-3" d="M274.24,95.4a29.86,29.86,0,0,1-12-7.48l2.53-4.18a29.38,29.38,0,0,0,11,6.93,37.24,37.24,0,0,0,14.41,2.75c7.37,0,12.87-1.43,16.61-4.18a12.92,12.92,0,0,0,5.61-10.89,11.51,11.51,0,0,0-3-8.25A19,19,0,0,0,302,65.37,113.93,113.93,0,0,0,290.19,62a124.6,124.6,0,0,1-13.53-4.07A21.34,21.34,0,0,1,268,51.77c-2.42-2.75-3.63-6.38-3.63-11a19.14,19.14,0,0,1,3-10.34,20.72,20.72,0,0,1,9.13-7.37c4.07-1.87,9.13-2.75,15.18-2.75a43.68,43.68,0,0,1,12.54,1.87,37,37,0,0,1,10.67,5.06l-2.09,4.51a37.42,37.42,0,0,0-10.12-4.84,38.72,38.72,0,0,0-11-1.65q-10.72,0-16.17,4.29A13.58,13.58,0,0,0,270,40.66a11.51,11.51,0,0,0,3,8.25,18.88,18.88,0,0,0,7.37,4.73,105.79,105.79,0,0,0,12,3.52,125.27,125.27,0,0,1,13.53,4.07,22.73,22.73,0,0,1,8.69,5.94c2.31,2.75,3.52,6.38,3.52,10.89a18.56,18.56,0,0,1-3,10.23,21.42,21.42,0,0,1-9.35,7.37c-4.18,1.87-9.35,2.75-15.4,2.75A43.69,43.69,0,0,1,274.24,95.4Z" transform="translate(-14.1 -19.74)"/><path class="cls-3" d="M341.23,95.4a29.86,29.86,0,0,1-12-7.48l2.53-4.18a29.38,29.38,0,0,0,11,6.93,37.24,37.24,0,0,0,14.41,2.75c7.37,0,12.87-1.43,16.61-4.18a12.92,12.92,0,0,0,5.61-10.89,11.51,11.51,0,0,0-3-8.25A19,19,0,0,0,369,65.37,113.93,113.93,0,0,0,357.18,62a124.6,124.6,0,0,1-13.53-4.07A21.34,21.34,0,0,1,335,51.77c-2.42-2.75-3.63-6.38-3.63-11a19.14,19.14,0,0,1,3-10.34,20.72,20.72,0,0,1,9.13-7.37c4.07-1.87,9.13-2.75,15.18-2.75a43.68,43.68,0,0,1,12.54,1.87,37,37,0,0,1,10.67,5.06l-2.09,4.51a37.42,37.42,0,0,0-10.12-4.84,38.72,38.72,0,0,0-11-1.65q-10.72,0-16.17,4.29A13.58,13.58,0,0,0,337,40.66a11.51,11.51,0,0,0,3,8.25,18.88,18.88,0,0,0,7.37,4.73,105.79,105.79,0,0,0,12,3.52,125.27,125.27,0,0,1,13.53,4.07,22.73,22.73,0,0,1,8.69,5.94c2.31,2.75,3.52,6.38,3.52,10.89a18.56,18.56,0,0,1-3,10.23,21.42,21.42,0,0,1-9.35,7.37c-4.18,1.87-9.35,2.75-15.4,2.75A43.69,43.69,0,0,1,341.23,95.4Z" transform="translate(-14.1 -19.74)"/><path class="cls-4" d="M467.58,96.92,448.7,58.23,430.31,96.92,393.15,21h4l33.12,66.25,16.16-33.43L430.31,21h4.25l14,28.38L462.23,21h4.14L450.82,53.72l16.76,33.53L499.5,21h4Z" transform="translate(-14.1 -19.74)"/><path class="cls-3" d="M531.69,93.2a37.06,37.06,0,0,1-14.3-14,40.18,40.18,0,0,1,0-39.82,37.34,37.34,0,0,1,14.3-14.08,43.88,43.88,0,0,1,40.92,0A38.27,38.27,0,0,1,587,39.3a41.39,41.39,0,0,1,0,40,38.27,38.27,0,0,1-14.41,14,43.48,43.48,0,0,1-40.92-.11Zm37.95-4.4A32.89,32.89,0,0,0,582,76.59a34,34,0,0,0,4.51-17.27A34.47,34.47,0,0,0,582,41.94a32.53,32.53,0,0,0-12.32-12.1,37,37,0,0,0-35,0,32,32,0,0,0-12.43,12.1,34.27,34.27,0,0,0-4.51,17.38,33.94,33.94,0,0,0,4.51,17.27A32.33,32.33,0,0,0,534.64,88.8,37,37,0,0,0,569.64,88.8Z" transform="translate(-14.1 -19.74)"/><path class="cls-3" d="M665,97.82l-18-25.3H617.1v25.3h-5.39v-30c.55,0,1.21-.11,1.76-.11,9.13,0,18.37.11,27.61,0a27.89,27.89,0,0,0,14.19-3.41,17.94,17.94,0,0,0,8.91-13.2A23.92,23.92,0,0,0,663.3,39a16.89,16.89,0,0,0-7.15-8.91A27.76,27.76,0,0,0,641.47,26c-9.35-.11-18.81-.11-28.16-.11h-1.65V20.94c.33,0,.55-.11.88-.11,9.57,0,19.14-.11,28.71.11,7,.22,13.75,1.76,19.58,6a21.64,21.64,0,0,1,8.25,12.1,27.5,27.5,0,0,1-.77,17.82A21.83,21.83,0,0,1,655.1,69.77L652,71c6.49,8.91,12.76,17.71,19.25,26.84Z" transform="translate(-14.1 -19.74)"/><path class="cls-3" d="M690.86,20.93c.33,0,.66-.11.88-.11,10.34,0,20.68-.11,31.13.11a40.32,40.32,0,0,1,23.1,7,35.64,35.64,0,0,1,14.85,20.79,41.84,41.84,0,0,1,.77,17.71,36,36,0,0,1-8,17.6,37.37,37.37,0,0,1-17.05,11.33,52.74,52.74,0,0,1-16.06,2.42H692.29a6.84,6.84,0,0,1-1.43-.11V59.54h5.5V92.65c.44,0,.66.11,1,.11,8.91,0,17.93.22,27-.11,9.35-.33,17.49-3.63,24-10.56A29.83,29.83,0,0,0,756,66.91a35.32,35.32,0,0,0-2.53-22.77A29.39,29.39,0,0,0,739,29.84c-5.94-3-12.32-4-18.92-4-9.13.11-18.26,0-27.39,0a10.34,10.34,0,0,1-1.76-.11Z" transform="translate(-14.1 -19.74)"/></svg>