<svg id="dassword-logo" class="dassword-logo-main" data-name="Layer 1"
  xmlns="http://www.w3.org/2000/svg" viewBox="0 0 735 120">
  <defs>
    <style>
     <!-- :root{ -->
        <!-- color:#4ECCA3;
        secondary-color:#eeeeee;
      }  -->
      .dassword-logo-main path, .dassword-logo-main rect{
        fill:#4ECCA3;
        stroke:#4ECCA3;
      }
      .d-letter , .star {
        fill:#eeeeee !important;
        stroke:#eeeeee !important;
      }
      .dassword-logo-main rect{
        fill: note;
        stroke:#4ECCA3;
      }

      .w-letter, .lock-rect {
        stroke-miterlimit: 10;
      }

      .w-letter {
        stroke-width: 1.5px;
      }

      .lock-rect {
        fill: none !important;
        x: 2px;
        y: 18px;
        width: 85px;
        height: 85px;
        stroke-width: 4px;
      }
    </style>
  </defs>
  <g>
    <path class="d-letter" d="M286,324.94a35.63,35.63,0,0,0-14.85-20.79,40.27,40.27,0,0,0-23.1-7c-6.19-.13-18.41-.14-18.41-.14l.1,5.09s10.25.06,15.45,0c6.6,0,13,1,18.92,4a29.39,29.39,0,0,1,14.41,14.3A35.25,35.25,0,0,1,281,343.09a29.75,29.75,0,0,1-7.59,15.18c-6.49,6.93-14.63,10.23-24,10.56L216,369v4.89a6.77,6.77,0,0,0,1.43.11h28.16a52.63,52.63,0,0,0,16.06-2.42,37.34,37.34,0,0,0,17.05-11.33,35.89,35.89,0,0,0,8-17.6A41.84,41.84,0,0,0,286,324.94Z" transform="translate(-129 -275)"/>
    <rect class="lock-rect"/>
    <path class="star" d="M171.05,339.33l-12.19,12.33-3.08-3.09,12.06-12.19H149.61v-5.63h18.23l-3-3.21c-1.07-1.16-2.15-2.23-3.22-3.22s-2-1.87-3-2.95-2-2.05-2.88-2.94l3.21-3.22,12.06,12.06V309.18h5.76v18.09l12.33-12.06,3,3.08-12.33,12.46h18.63v5.63H179.76l12.33,12.33-2.81,3-12.47-12.33v18.49h-5.76Z" transform="translate(-129 -275)"/>
    <path d="M283.54,373.82l35.42-77h5.61L360,373.71h-5.94L321.94,303.2h-.45l-32,70.62Z" transform="translate(-131 -275)"/>
    <path d="M378.14,371.4a29.88,29.88,0,0,1-12-7.48l2.53-4.18a29.5,29.5,0,0,0,11,6.93,37.34,37.34,0,0,0,14.41,2.75c7.37,0,12.87-1.43,16.61-4.18a12.88,12.88,0,0,0,5.61-10.89,11.5,11.5,0,0,0-3-8.25,18.93,18.93,0,0,0-7.37-4.73A114.08,114.08,0,0,0,394.09,338a124.41,124.41,0,0,1-13.53-4.07,21.32,21.32,0,0,1-8.69-6.16c-2.42-2.75-3.63-6.38-3.63-11a19.16,19.16,0,0,1,3-10.34,20.72,20.72,0,0,1,9.13-7.37c4.07-1.87,9.13-2.75,15.18-2.75a43.82,43.82,0,0,1,12.54,1.87,36.89,36.89,0,0,1,10.67,5.06l-2.09,4.51a37.32,37.32,0,0,0-10.12-4.84,38.68,38.68,0,0,0-11-1.65q-10.72,0-16.17,4.29a13.6,13.6,0,0,0-5.5,11.11,11.5,11.5,0,0,0,3,8.25,18.93,18.93,0,0,0,7.37,4.73,106.21,106.21,0,0,0,12,3.52,124.41,124.41,0,0,1,13.53,4.07,22.71,22.71,0,0,1,8.69,5.94c2.31,2.75,3.52,6.38,3.52,10.89a18.53,18.53,0,0,1-3,10.23,21.41,21.41,0,0,1-9.35,7.37c-4.18,1.87-9.35,2.75-15.4,2.75A43.82,43.82,0,0,1,378.14,371.4Z" transform="translate(-131 -275)"/>
    <path d="M445.13,371.4a29.88,29.88,0,0,1-12-7.48l2.53-4.18a29.5,29.5,0,0,0,11,6.93,37.34,37.34,0,0,0,14.41,2.75c7.37,0,12.87-1.43,16.61-4.18a12.88,12.88,0,0,0,5.61-10.89,11.5,11.5,0,0,0-3-8.25,18.93,18.93,0,0,0-7.37-4.73A114.08,114.08,0,0,0,461.08,338a124.41,124.41,0,0,1-13.53-4.07,21.32,21.32,0,0,1-8.69-6.16c-2.42-2.75-3.63-6.38-3.63-11a19.16,19.16,0,0,1,3-10.34,20.72,20.72,0,0,1,9.13-7.37c4.07-1.87,9.13-2.75,15.18-2.75a43.82,43.82,0,0,1,12.54,1.87,36.89,36.89,0,0,1,10.67,5.06l-2.09,4.51a37.32,37.32,0,0,0-10.12-4.84,38.68,38.68,0,0,0-11-1.65q-10.72,0-16.17,4.29a13.6,13.6,0,0,0-5.5,11.11,11.5,11.5,0,0,0,3,8.25,18.93,18.93,0,0,0,7.37,4.73,106.21,106.21,0,0,0,12,3.52,124.41,124.41,0,0,1,13.53,4.07,22.71,22.71,0,0,1,8.69,5.94c2.31,2.75,3.52,6.38,3.52,10.89a18.53,18.53,0,0,1-3,10.23,21.41,21.41,0,0,1-9.35,7.37c-4.18,1.87-9.35,2.75-15.4,2.75A43.82,43.82,0,0,1,445.13,371.4Z" transform="translate(-131 -275)"/>
    <path class="w-letter" d="M571.48,372.92,552.6,334.23l-18.39,38.69L497.05,297h4l33.12,66.25,16.16-33.43L534.21,297h4.25l14,28.38L566.13,297h4.14l-15.55,32.72,16.76,33.53L603.4,297h4Z" transform="translate(-131 -275)"/>
    <path d="M635.59,369.2a37.14,37.14,0,0,1-14.3-14,40.18,40.18,0,0,1,0-39.82,37.41,37.41,0,0,1,14.3-14.08,43.89,43.89,0,0,1,40.92,0,38.2,38.2,0,0,1,14.41,14,41.35,41.35,0,0,1,0,40,38.2,38.2,0,0,1-14.41,14,43.48,43.48,0,0,1-40.92-.11Zm37.95-4.4a32.82,32.82,0,0,0,12.32-12.21,34,34,0,0,0,4.51-17.27,34.39,34.39,0,0,0-4.51-17.38,32.53,32.53,0,0,0-12.32-12.1,37,37,0,0,0-35,0,32.06,32.06,0,0,0-12.43,12.1,34.39,34.39,0,0,0-4.51,17.38,34,34,0,0,0,4.51,17.27,32.34,32.34,0,0,0,12.43,12.21,37,37,0,0,0,35,0Z" transform="translate(-131 -275)"/>
    <path d="M768.91,373.82l-18-25.3H721v25.3h-5.39v-30c.55,0,1.21-.11,1.76-.11,9.13,0,18.37.11,27.61,0a27.91,27.91,0,0,0,14.19-3.41,17.93,17.93,0,0,0,8.91-13.2,23.84,23.84,0,0,0-.88-12.1,16.84,16.84,0,0,0-7.15-8.91A27.73,27.73,0,0,0,745.37,302c-9.35-.11-18.81-.11-28.16-.11h-1.65v-4.95c.33,0,.55-.11.88-.11,9.57,0,19.14-.11,28.71.11,7,.22,13.75,1.76,19.58,6.05a21.57,21.57,0,0,1,8.25,12.1,27.48,27.48,0,0,1-.77,17.82A21.82,21.82,0,0,1,759,345.77L755.93,347c6.49,8.91,12.76,17.71,19.25,26.84Z" transform="translate(-131 -275)"/>
    <path d="M794.76,296.93c.33,0,.66-.11.88-.11,10.34,0,20.68-.11,31.13.11a40.27,40.27,0,0,1,23.1,7,35.63,35.63,0,0,1,14.85,20.79,41.84,41.84,0,0,1,.77,17.71,35.89,35.89,0,0,1-8,17.6,37.34,37.34,0,0,1-17.05,11.33,52.63,52.63,0,0,1-16.06,2.42H796.19a6.77,6.77,0,0,1-1.43-.11V335.54h5.5v33.11c.44,0,.66.11,1,.11,8.91,0,17.93.22,27-.11,9.35-.33,17.49-3.63,24-10.56a29.75,29.75,0,0,0,7.59-15.18,35.25,35.25,0,0,0-2.53-22.77,29.39,29.39,0,0,0-14.41-14.3c-5.94-3-12.32-4-18.92-4-9.13.11-18.26,0-27.39,0a10.07,10.07,0,0,1-1.76-.11Z" transform="translate(-131 -275)"/>
  </g>
</svg>
